# xmcd
#
# Track frame offsets:
#	150
#	26980
#	46858
#	66943
#	88086
#	108344
#	124953
#	142926
#	152055
#	171367
#	189796
#	210948
#	230420
#	256443
#	267097
#	291286
#	312655
#
# Disc length: 4566 seconds
#
# Revision: 0
# Processed by: cddbd v1.5.2PL0 Copyright (c) Steve Scherf et al.
# Submitted via: EasyCDDAExtractor 2010.6.0.0
#
DISCID=f511d411
DTITLE=Jon Shain Trio - The Kress Sessions
DYEAR=2011
DGENRE=Blues
TTITLE0=The Letter
TTITLE1=Getaway Car
TTITLE2=To Rise Again
TTITLE3=Ooncha Ooncha Music
TTITLE4=Laughter Fades Away
TTITLE5=New Standards
TTITLE6=Love is a Lucky Thing
TTITLE7=Joe Turner Ridin' Down Main Street
TTITLE8=Give My Regards to Brother Ray
TTITLE9=One Way Gal
TTITLE10=Like the Ocean
TTITLE11=Ten Days
TTITLE12=Luck Don't Come Easy
TTITLE13=Blue Days, Black Nights
TTITLE14=If You Believe In What You Do
TTITLE15=Drunken Horses
TTITLE16=Little Red Hen
EXTD=
EXTT0=
EXTT1=
EXTT2=
EXTT3=
EXTT4=
EXTT5=
EXTT6=
EXTT7=
EXTT8=
EXTT9=
EXTT10=
EXTT11=
EXTT12=
EXTT13=
EXTT14=
EXTT15=
EXTT16=
PLAYORDER=
